<svg width="23" height="17" viewBox="0 0 23 17" fill="none" xmlns="http://www.w3.org/2000/svg">
<path d="M20.5941 0H2.40592C1.76805 0.00073995 1.15652 0.259354 0.705479 0.719107C0.254439 1.17886 0.000725927 1.80221 0 2.45239V14.5476C0.000725927 15.1978 0.254439 15.8211 0.705479 16.2809C1.15652 16.7406 1.76805 16.9993 2.40592 17H20.5941C21.2319 16.9993 21.8435 16.7406 22.2945 16.2809C22.7456 15.8211 22.9993 15.1978 23 14.5476V2.45239C22.9993 1.80221 22.7456 1.17885 22.2946 0.719096C21.8435 0.259339 21.232 0.000727019 20.5941 0ZM16.3164 8.49667L22.0377 3.91961V14.1578L16.3164 8.49667ZM2.40592 0.980958H20.5941C20.9768 0.981399 21.3437 1.13657 21.6143 1.41242C21.885 1.68827 22.0372 2.06228 22.0376 2.45239V2.67262L12.7792 10.0797C12.4407 10.3491 12.0235 10.4953 11.594 10.4949C11.1646 10.4945 10.7476 10.3477 10.4095 10.0778L0.962367 2.67076V2.45239C0.9628 2.06228 1.11503 1.68827 1.38565 1.41242C1.65628 1.13657 2.0232 0.981399 2.40592 0.980958ZM6.85388 8.52747L0.962367 14.1775V3.90833L6.85388 8.52747ZM20.5941 16.019H2.40592C2.15947 16.0189 1.91717 15.9545 1.70207 15.8319C1.48697 15.7093 1.30624 15.5326 1.17707 15.3186L7.62657 9.1337L9.8199 10.8533C10.3271 11.2572 10.9524 11.4765 11.596 11.4763C12.2397 11.4762 12.8648 11.2565 13.3718 10.8524L15.5525 9.10819L21.8254 15.3147C21.6965 15.5297 21.5156 15.7074 21.3 15.8307C21.0844 15.9541 20.8413 16.0189 20.5941 16.019Z" fill="white"/>
</svg>
