<svg width="18" height="18" viewBox="0 0 18 18" fill="none" xmlns="http://www.w3.org/2000/svg">
<path d="M15.769 9.92879C15.5702 9.92879 15.3625 9.86537 15.1638 9.82008C14.7614 9.73115 14.3659 9.61307 13.9805 9.46679C13.5615 9.3139 13.1009 9.32184 12.6874 9.48908C12.2738 9.65632 11.9366 9.97103 11.7405 10.3727L11.5418 10.7803C10.662 10.2895 9.85361 9.67988 9.13916 8.96856C8.42991 8.25203 7.82207 7.44125 7.33268 6.55893L7.71204 6.30529C8.1125 6.10864 8.4263 5.7704 8.59305 5.35565C8.7598 4.94091 8.76772 4.47897 8.61528 4.05872C8.47186 3.67139 8.35419 3.27496 8.26301 2.87203C8.21785 2.67274 8.18172 2.46439 8.15463 2.25604C8.04494 1.61796 7.7117 1.04012 7.21491 0.626585C6.71812 0.213051 6.09044 -0.00900355 5.4449 0.000409507H2.73517C2.3459 -0.00325615 1.96041 0.0772398 1.60495 0.236417C1.24949 0.395595 0.932397 0.629716 0.675262 0.922844C0.418127 1.21597 0.226986 1.56122 0.114852 1.9351C0.00271758 2.30897 -0.0277778 2.70268 0.0254418 3.08944C0.506634 6.88449 2.2348 10.4106 4.93696 13.1108C7.63912 15.811 11.1613 17.5313 14.947 18.0001H15.2902C15.9563 18.0011 16.5994 17.756 17.0967 17.3117C17.3825 17.0553 17.6108 16.7411 17.7665 16.3898C17.9222 16.0384 18.0017 15.6579 18 15.2734V12.5558C17.9889 11.9266 17.7604 11.3207 17.3536 10.8416C16.9467 10.3625 16.3866 10.0399 15.769 9.92879ZM16.2206 15.364C16.2204 15.4926 16.1929 15.6198 16.14 15.7369C16.087 15.854 16.0098 15.9585 15.9135 16.0434C15.8126 16.1308 15.6945 16.1961 15.567 16.2351C15.4395 16.2741 15.3052 16.286 15.1728 16.2699C11.7901 15.8349 8.64801 14.2829 6.2422 11.8586C3.8364 9.43426 2.30379 6.2757 1.88612 2.88109C1.87175 2.74839 1.88434 2.61415 1.92316 2.48648C1.96197 2.35881 2.02619 2.24035 2.11193 2.13827C2.19658 2.04164 2.30077 1.9642 2.41757 1.91109C2.53438 1.85799 2.66112 1.83044 2.78936 1.83027H5.49909C5.70914 1.82559 5.91424 1.89448 6.0791 2.0251C6.24396 2.15572 6.35827 2.33989 6.40233 2.54591C6.43846 2.79352 6.48363 3.03811 6.53782 3.27967C6.64216 3.7572 6.78103 4.22647 6.95331 4.68378L5.68877 5.27259C5.58065 5.32235 5.4834 5.39303 5.40259 5.48058C5.32178 5.56813 5.25901 5.67083 5.21789 5.78278C5.17676 5.89473 5.15809 6.01372 5.16295 6.13292C5.1678 6.25213 5.19609 6.36919 5.24618 6.47741C6.54613 9.26999 8.78441 11.5148 11.5689 12.8185C11.7888 12.9091 12.0354 12.9091 12.2553 12.8185C12.368 12.7781 12.4715 12.7157 12.5599 12.6348C12.6483 12.5539 12.7198 12.4563 12.7702 12.3475L13.3302 11.0792C13.7972 11.2467 14.2737 11.3859 14.7573 11.4959C14.9982 11.5503 15.2421 11.5956 15.489 11.6318C15.6944 11.676 15.878 11.7907 16.0083 11.956C16.1385 12.1213 16.2072 12.327 16.2025 12.5377L16.2206 15.364Z" fill="white"/>
</svg>
